<svg width="169" height="917" viewBox="0 0 169 917" fill="none" xmlns="http://www.w3.org/2000/svg">
<g clip-path="url(#clip0_1130_2724)">
<path d="M0 0V864.308C1.06755 865.833 2.86297 866.906 2.86297 871.706C2.86297 862.501 6.66004 879.444 6.66004 871.537C6.66004 870.803 10.445 879.952 10.445 872.892C10.445 865.212 14.145 857.474 14.145 858.604C14.145 858.886 17.9299 868.205 17.9299 865.72C17.9299 872.779 21.6178 877.919 21.6178 869.617C21.6178 868.544 24.7719 876.507 24.7719 878.709C24.7719 879.161 28.8116 865.155 28.8116 873.231C28.8116 868.995 31.8202 894.805 31.8202 886.842C31.8202 893.393 35.6051 878.032 35.6051 880.291C35.6051 877.128 40.215 887.407 40.215 887.802C40.215 890.061 43.8544 872.949 43.8544 872.384C43.8544 871.537 48.5734 870.182 48.5734 874.135C48.5734 880.065 52.1642 861.371 52.1642 860.355C52.1642 855.328 56.4102 862.105 56.4102 863.743C56.4102 866.624 60.3043 861.202 60.3043 860.072C60.3043 864.026 64.3561 853.408 64.3561 852.617C64.3561 853.747 68.4686 851.996 68.4686 853.408C68.4686 861.88 72.3748 859.79 72.3748 860.411C72.3748 858.999 76.3175 858.435 76.3175 864.816C76.3175 863.235 80.43 868.092 80.43 865.833C80.43 861.202 83.851 874.417 83.851 879.839C83.851 881.025 87.8785 881.025 87.8785 882.606C87.8785 878.032 92.0032 893.167 92.0032 883.623C92.0032 880.912 96.1399 885.543 96.1399 883.792C96.1399 882.719 100.204 876.111 100.204 884.075C100.204 880.912 103.928 896.838 103.928 895.087C103.928 895.878 107.968 906.665 107.968 899.21C107.968 898.589 111.995 888.536 111.995 888.31C111.995 882.55 116.217 898.419 116.217 897.403C116.217 892.32 119.614 895.087 119.614 891.021C119.614 888.423 123.144 896.16 123.144 890.513C123.144 894.127 126.419 896.951 126.419 895.37C126.419 890.456 130.338 897.516 130.338 892.546C130.338 890.965 133.456 905.479 133.456 904.971C133.456 907.569 137.592 899.041 137.592 902.316C137.592 895.878 141.414 905.14 141.414 897.403C141.414 901.977 145.368 893.901 145.368 894.41C145.368 903.163 149.542 908.303 149.542 895.426C149.542 893.506 153.326 888.762 153.326 891.247C153.326 881.533 156.966 913.329 156.966 900.283C156.966 900.057 160.411 914.402 160.411 910.957C160.411 914.572 165.47 909.545 165.47 909.602C165.47 916.831 168.442 917.339 168.988 916.322V0H0Z" fill="#F86DFF"/>
</g>
<defs>
<clipPath id="clip0_1130_2724">
<rect width="169" height="917" fill="white"/>
</clipPath>
</defs>
</svg>
